<svg xmlns:xlink="http://www.w3.org/1999/xlink" version="1.1" class="highcharts-root" style="font-family: Helvetica, Arial, sans-serif; font-size: 1rem;" xmlns="http://www.w3.org/2000/svg" width="301" height="336" viewBox="0 0 301 336" aria-label="Interactive chart" aria-hidden="false"><desc aria-hidden="true">Created with Highcharts 11.1.0</desc><defs aria-hidden="true"><filter id="highcharts-drop-shadow-25"><feDropShadow dx="1" dy="1" flood-color="#000000" flood-opacity="0.75" stdDeviation="2.5"></feDropShadow></filter><clipPath id="highcharts-e2rh8ss-2362-"><rect x="0" y="0" width="248" height="168" fill="none"></rect></clipPath><clipPath id="highcharts-e2rh8ss-2368-"><rect x="0" y="0" width="248" height="168" fill="none"></rect></clipPath></defs><rect fill="#ffffff" class="highcharts-background" filter="none" x="0" y="0" width="301" height="336" rx="0" ry="0" aria-hidden="true"></rect><rect fill="none" class="highcharts-plot-background" x="43" y="10" width="248" height="168" filter="none" aria-hidden="true"></rect><g class="highcharts-pane-group" data-z-index="0" aria-hidden="true"></g><g class="highcharts-grid highcharts-xaxis-grid" data-z-index="1" aria-hidden="true"><path fill="none" stroke="#e6e6e6" stroke-width="0" stroke-dasharray="none" data-z-index="1" class="highcharts-grid-line" d="M 92.5 10 L 92.5 178" opacity="1"></path><path fill="none" stroke="#e6e6e6" stroke-width="0" stroke-dasharray="none" data-z-index="1" class="highcharts-grid-line" d="M 141.5 10 L 141.5 178" opacity="1"></path><path fill="none" stroke="#e6e6e6" stroke-width="0" stroke-dasharray="none" data-z-index="1" class="highcharts-grid-line" d="M 191.5 10 L 191.5 178" opacity="1"></path><path fill="none" stroke="#e6e6e6" stroke-width="0" stroke-dasharray="none" data-z-index="1" class="highcharts-grid-line" d="M 240.5 10 L 240.5 178" opacity="1"></path><path fill="none" stroke="#e6e6e6" stroke-width="0" stroke-dasharray="none" data-z-index="1" class="highcharts-grid-line" d="M 290.5 10 L 290.5 178" opacity="1"></path><path fill="none" stroke="#e6e6e6" stroke-width="0" stroke-dasharray="none" data-z-index="1" class="highcharts-grid-line" d="M 42.5 10 L 42.5 178" opacity="1"></path></g><g class="highcharts-grid highcharts-yaxis-grid" data-z-index="1" aria-hidden="true"><path fill="none" stroke="#e6e6e6" stroke-width="1" stroke-dasharray="none" data-z-index="1" class="highcharts-grid-line" d="M 43 178.5 L 291 178.5" opacity="1"></path><path fill="none" stroke="#e6e6e6" stroke-width="1" stroke-dasharray="none" data-z-index="1" class="highcharts-grid-line" d="M 43 122.5 L 291 122.5" opacity="1"></path><path fill="none" stroke="#e6e6e6" stroke-width="1" stroke-dasharray="none" data-z-index="1" class="highcharts-grid-line" d="M 43 66.5 L 291 66.5" opacity="1"></path><path fill="none" stroke="#e6e6e6" stroke-width="1" stroke-dasharray="none" data-z-index="1" class="highcharts-grid-line" d="M 43 9.5 L 291 9.5" opacity="1"></path></g><rect fill="none" class="highcharts-plot-border" data-z-index="1" stroke="#cccccc" stroke-width="0" x="43" y="10" width="248" height="168" aria-hidden="true"></rect><g class="highcharts-axis highcharts-xaxis" data-z-index="2" aria-hidden="true"><path fill="none" class="highcharts-axis-line" stroke="#333333" stroke-width="1" data-z-index="7" d="M 43 178.5 L 291 178.5"></path></g><g class="highcharts-axis highcharts-yaxis" data-z-index="2" aria-hidden="true"><path fill="none" class="highcharts-axis-line" stroke="#333333" stroke-width="0" data-z-index="7" d="M 43 10 L 43 178"></path></g><g class="highcharts-series-group" data-z-index="3" filter="none" aria-hidden="false"><g class="highcharts-series highcharts-series-0 highcharts-column-series highcharts-color-0" data-z-index="0.1" opacity="1" transform="translate(43,10) scale(1 1)" clip-path="url(#highcharts-e2rh8ss-2368-)" aria-hidden="false"><path fill="#0078D4" d="M 15.5 38.5 L 33.5 38.5 A 3 3 0 0 1 36.5 41.5 L 36.5 168.5 A 0 0 0 0 1 36.5 168.5 L 12.5 168.5 A 0 0 0 0 1 12.5 168.5 L 12.5 41.5 A 3 3 0 0 1 15.5 38.5 Z" stroke="#ffffff" stroke-width="1" opacity="1" filter="none" class="highcharts-point highcharts-color-0" tabindex="-1" role="img" aria-label="MAHARASHTRA, 4,627,668.690000002. Sales_Amount." style="outline: none;"></path><path fill="#0078D4" d="M 64.5 69.5 L 82.5 69.5 A 3 3 0 0 1 85.5 72.5 L 85.5 168.5 A 0 0 0 0 1 85.5 168.5 L 61.5 168.5 A 0 0 0 0 1 61.5 168.5 L 61.5 72.5 A 3 3 0 0 1 64.5 69.5 Z" stroke="#ffffff" stroke-width="1" opacity="1" filter="none" class="highcharts-point highcharts-color-0" tabindex="-1" role="img" aria-label="KARNATAKA, 3,518,977.11. Sales_Amount." style="outline: none;"></path><path fill="#0078D4" d="M 114.5 99.5 L 132.5 99.5 A 3 3 0 0 1 135.5 102.5 L 135.5 168.5 A 0 0 0 0 1 135.5 168.5 L 111.5 168.5 A 0 0 0 0 1 111.5 168.5 L 111.5 102.5 A 3 3 0 0 1 114.5 99.5 Z" stroke="#ffffff" stroke-width="1" opacity="1" filter="none" class="highcharts-point highcharts-color-0" tabindex="-1" role="img" aria-label="UTTAR PRADESH, 2,451,995.330000002. Sales_Amount." style="outline: none;"></path><path fill="#0078D4" d="M 164.5 107.5 L 182.5 107.5 A 3 3 0 0 1 185.5 110.5 L 185.5 168.5 A 0 0 0 0 1 185.5 168.5 L 161.5 168.5 A 0 0 0 0 1 161.5 168.5 L 161.5 110.5 A 3 3 0 0 1 164.5 107.5 Z" stroke="#ffffff" stroke-width="1" opacity="1" filter="none" class="highcharts-point highcharts-color-0" tabindex="-1" role="img" aria-label="TELANGANA, 2,167,258.1800000016. Sales_Amount." style="outline: none;"></path><path fill="#0078D4" d="M 213.5 112.5 L 231.5 112.5 A 3 3 0 0 1 234.5 115.5 L 234.5 168.5 A 0 0 0 0 1 234.5 168.5 L 210.5 168.5 A 0 0 0 0 1 210.5 168.5 L 210.5 115.5 A 3 3 0 0 1 213.5 112.5 Z" stroke="#ffffff" stroke-width="1" opacity="1" filter="none" class="highcharts-point highcharts-color-0" tabindex="-1" role="img" aria-label="TAMIL NADU, 1,992,970.0799999998. Sales_Amount." style="outline: none;"></path></g><g class="highcharts-markers highcharts-series-0 highcharts-column-series highcharts-color-0" data-z-index="0.1" opacity="1" transform="translate(43,10) scale(1 1)" clip-path="none" aria-hidden="true"></g></g><text x="151" text-anchor="middle" class="highcharts-title" data-z-index="4" style="font-size: 1.2em; color: rgb(51, 51, 51); font-weight: bold; fill: rgb(51, 51, 51);" y="25" aria-hidden="true"></text><text x="151" text-anchor="middle" class="highcharts-subtitle" data-z-index="4" style="color: rgb(102, 102, 102); font-size: 0.8em; fill: rgb(102, 102, 102);" y="24" aria-hidden="true"></text><text x="10" text-anchor="start" class="highcharts-caption" data-z-index="4" style="color: rgb(102, 102, 102); font-size: 0.8em; fill: rgb(102, 102, 102);" y="333" aria-hidden="true"></text><g class="highcharts-legend highcharts-no-tooltip" data-z-index="7" transform="translate(90,291)" aria-hidden="true"><rect fill="none" class="highcharts-legend-box" rx="0" ry="0" stroke="#999999" stroke-width="0" filter="none" x="0" y="0" width="120" height="30"></rect><g data-z-index="1"><g><g class="highcharts-legend-item highcharts-column-series highcharts-color-0 highcharts-series-0" data-z-index="1" transform="translate(8,3)"><text x="21" text-anchor="start" data-z-index="2" style="color: rgb(51, 51, 51); cursor: pointer; font-size: 0.8em; text-decoration: none; fill: rgb(51, 51, 51);" y="17">Sales_Amount</text><rect x="2" y="6" rx="6" ry="6" width="12" height="12" fill="#0078D4" class="highcharts-point" data-z-index="3"></rect></g></g></g></g><g class="highcharts-axis-labels highcharts-xaxis-labels" data-z-index="7" aria-hidden="true"><text x="70.62842712474618" text-anchor="end" transform="translate(0,0) rotate(-45 70.62842712474618 201)" style="color: rgb(51, 51, 51); cursor: default; font-size: 0.8em; fill: rgb(51, 51, 51);" y="201" opacity="1"><title>MAHARASHTRA</title>MAHARASH…</text><text x="120.22842712474618" text-anchor="end" transform="translate(0,0) rotate(-45 120.22842712474618 201)" style="color: rgb(51, 51, 51); cursor: default; font-size: 0.8em; fill: rgb(51, 51, 51);" y="201" opacity="1">KARNATAKA</text><text x="169.82842712474618" text-anchor="end" transform="translate(0,0) rotate(-45 169.82842712474618 201)" style="color: rgb(51, 51, 51); cursor: default; font-size: 0.8em; fill: rgb(51, 51, 51);" y="201" opacity="1">UTTAR PRADESH</text><text x="219.42842712474618" text-anchor="end" transform="translate(0,0) rotate(-45 219.42842712474618 201)" style="color: rgb(51, 51, 51); cursor: default; font-size: 0.8em; fill: rgb(51, 51, 51);" y="201" opacity="1">TELANGANA</text><text x="269.0284271247462" text-anchor="end" transform="translate(0,0) rotate(-45 269.0284271247462 201)" style="color: rgb(51, 51, 51); cursor: default; font-size: 0.8em; fill: rgb(51, 51, 51);" y="201" opacity="1">TAMIL NADU</text></g><g class="highcharts-axis-labels highcharts-yaxis-labels" data-z-index="7" aria-hidden="true"><text x="28" text-anchor="end" transform="translate(0,0)" style="color: rgb(51, 51, 51); cursor: default; font-size: 0.8em; fill: rgb(51, 51, 51);" y="183" opacity="1">0</text><text x="28" text-anchor="end" transform="translate(0,0)" style="color: rgb(51, 51, 51); cursor: default; font-size: 0.8em; fill: rgb(51, 51, 51);" y="127" opacity="1">2M</text><text x="28" text-anchor="end" transform="translate(0,0)" style="color: rgb(51, 51, 51); cursor: default; font-size: 0.8em; fill: rgb(51, 51, 51);" y="71" opacity="1">4M</text><text x="28" text-anchor="end" transform="translate(0,0)" style="color: rgb(51, 51, 51); cursor: default; font-size: 0.8em; fill: rgb(51, 51, 51);" y="15" opacity="1">6M</text></g></svg>