<svg xmlns:xlink="http://www.w3.org/1999/xlink" version="1.1" class="highcharts-root" style="font-family: Helvetica, Arial, sans-serif; font-size: 1rem;" xmlns="http://www.w3.org/2000/svg" width="301" height="349" viewBox="0 0 301 349" aria-label="Interactive chart" aria-hidden="false"><desc aria-hidden="true">Created with Highcharts 11.1.0</desc><defs aria-hidden="true"><filter id="highcharts-drop-shadow-24"><feDropShadow dx="1" dy="1" flood-color="#000000" flood-opacity="0.75" stdDeviation="2.5"></feDropShadow></filter><clipPath id="highcharts-e2rh8ss-2260-"><rect x="0" y="0" width="252" height="166" fill="none"></rect></clipPath><clipPath id="highcharts-e2rh8ss-2298-"><rect x="0" y="0" width="252" height="166" fill="none"></rect></clipPath><filter id="highcharts-drop-shadow-24--1--1"><feDropShadow dx="-1" dy="-1" flood-color="#000000" flood-opacity="0.75" stdDeviation="2.5"></feDropShadow></filter></defs><rect fill="#ffffff" class="highcharts-background" filter="none" x="0" y="0" width="301" height="349" rx="0" ry="0" aria-hidden="true"></rect><rect fill="none" class="highcharts-plot-background" x="125" y="52" width="166" height="252" filter="none" aria-hidden="true"></rect><g class="highcharts-pane-group" data-z-index="0" aria-hidden="true"></g><g class="highcharts-grid highcharts-xaxis-grid" data-z-index="1" aria-hidden="true"><path fill="none" stroke="#e6e6e6" stroke-width="0" stroke-dasharray="none" data-z-index="1" class="highcharts-grid-line" d="M 125 55.5 L 291 55.5" opacity="1"></path><path fill="none" stroke="#e6e6e6" stroke-width="0" stroke-dasharray="none" data-z-index="1" class="highcharts-grid-line" d="M 125 76.5 L 291 76.5" opacity="1"></path><path fill="none" stroke="#e6e6e6" stroke-width="0" stroke-dasharray="none" data-z-index="1" class="highcharts-grid-line" d="M 125 96.5 L 291 96.5" opacity="1"></path><path fill="none" stroke="#e6e6e6" stroke-width="0" stroke-dasharray="none" data-z-index="1" class="highcharts-grid-line" d="M 125 117.5 L 291 117.5" opacity="1"></path><path fill="none" stroke="#e6e6e6" stroke-width="0" stroke-dasharray="none" data-z-index="1" class="highcharts-grid-line" d="M 125 137.5 L 291 137.5" opacity="1"></path><path fill="none" stroke="#e6e6e6" stroke-width="0" stroke-dasharray="none" data-z-index="1" class="highcharts-grid-line" d="M 125 158.5 L 291 158.5" opacity="1"></path><path fill="none" stroke="#e6e6e6" stroke-width="0" stroke-dasharray="none" data-z-index="1" class="highcharts-grid-line" d="M 125 178.5 L 291 178.5" opacity="1"></path><path fill="none" stroke="#e6e6e6" stroke-width="0" stroke-dasharray="none" data-z-index="1" class="highcharts-grid-line" d="M 125 198.5 L 291 198.5" opacity="1"></path><path fill="none" stroke="#e6e6e6" stroke-width="0" stroke-dasharray="none" data-z-index="1" class="highcharts-grid-line" d="M 125 219.5 L 291 219.5" opacity="1"></path><path fill="none" stroke="#e6e6e6" stroke-width="0" stroke-dasharray="none" data-z-index="1" class="highcharts-grid-line" d="M 125 239.5 L 291 239.5" opacity="1"></path><path fill="none" stroke="#e6e6e6" stroke-width="0" stroke-dasharray="none" data-z-index="1" class="highcharts-grid-line" d="M 125 260.5 L 291 260.5" opacity="1"></path><path fill="none" stroke="#e6e6e6" stroke-width="0" stroke-dasharray="none" data-z-index="1" class="highcharts-grid-line" d="M 125 280.5 L 291 280.5" opacity="1"></path><path fill="none" stroke="#e6e6e6" stroke-width="0" stroke-dasharray="none" data-z-index="1" class="highcharts-grid-line" d="M 125 301.5 L 291 301.5" opacity="1"></path></g><g class="highcharts-grid highcharts-yaxis-grid" data-z-index="1" aria-hidden="true"><path fill="none" stroke="#e6e6e6" stroke-width="1" stroke-dasharray="none" data-z-index="1" class="highcharts-grid-line" d="M 124.5 52 L 124.5 304" opacity="1"></path><path fill="none" stroke="#e6e6e6" stroke-width="1" stroke-dasharray="none" data-z-index="1" class="highcharts-grid-line" d="M 179.5 52 L 179.5 304" opacity="1"></path><path fill="none" stroke="#e6e6e6" stroke-width="1" stroke-dasharray="none" data-z-index="1" class="highcharts-grid-line" d="M 235.5 52 L 235.5 304" opacity="1"></path><path fill="none" stroke="#e6e6e6" stroke-width="1" stroke-dasharray="none" data-z-index="1" class="highcharts-grid-line" d="M 291.5 52 L 291.5 304" opacity="1"></path></g><rect fill="none" class="highcharts-plot-border" data-z-index="1" stroke="#cccccc" stroke-width="0" x="125" y="52" width="166" height="252" aria-hidden="true"></rect><g class="highcharts-axis highcharts-xaxis" data-z-index="2" aria-hidden="true"><path fill="none" class="highcharts-axis-line" stroke="#333333" stroke-width="1" data-z-index="7" d="M 124.5 52 L 124.5 304"></path></g><g class="highcharts-axis highcharts-yaxis" data-z-index="2" aria-hidden="true"><path fill="none" class="highcharts-axis-line" stroke="#333333" stroke-width="0" data-z-index="7" d="M 125 304 L 291 304"></path></g><g class="highcharts-series-group" data-z-index="3" filter="none" aria-hidden="false"><g class="highcharts-series highcharts-series-0 highcharts-bar-series highcharts-color-0" data-z-index="0.1" opacity="1" transform="translate(125,52) rotate(90 -43 209) scale(-1 1)" clip-path="url(#highcharts-e2rh8ss-2298-)" aria-hidden="false" role="region" tabindex="-1" aria-label="Sales_Amount, bar series 1 of 2 with 37 bars." style="outline: none;"><path fill="#0078D4" d="M 248.5 38.5 L 248.5 38.5 A 2 2 0 0 1 250.5 40.5 L 250.5 166.5 A 0 0 0 0 1 250.5 166.5 L 246.5 166.5 A 0 0 0 0 1 246.5 166.5 L 246.5 40.5 A 2 2 0 0 1 248.5 38.5 Z" stroke="#ffffff" stroke-width="1" opacity="1" filter="none" class="highcharts-point highcharts-color-0" tabindex="-1" role="img" aria-label="MAHARASHTRA, 4,627,668.690000002. Sales_Amount." style="outline: none;"></path><path fill="#0078D4" d="M 241.5 69.5 L 241.5 69.5 A 2 2 0 0 1 243.5 71.5 L 243.5 166.5 A 0 0 0 0 1 243.5 166.5 L 239.5 166.5 A 0 0 0 0 1 239.5 166.5 L 239.5 71.5 A 2 2 0 0 1 241.5 69.5 Z" stroke="#ffffff" stroke-width="1" opacity="1" filter="none" class="highcharts-point highcharts-color-0" tabindex="-1" role="img" aria-label="KARNATAKA, 3,518,977.11. Sales_Amount." style="outline: none;"></path><path fill="#0078D4" d="M 234.5 98.5 L 234.5 98.5 A 2 2 0 0 1 236.5 100.5 L 236.5 166.5 A 0 0 0 0 1 236.5 166.5 L 232.5 166.5 A 0 0 0 0 1 232.5 166.5 L 232.5 100.5 A 2 2 0 0 1 234.5 98.5 Z" stroke="#ffffff" stroke-width="1" opacity="1" filter="none" class="highcharts-point highcharts-color-0" tabindex="-1" role="img" aria-label="UTTAR PRADESH, 2,451,995.330000002. Sales_Amount." style="outline: none;"></path><path fill="#0078D4" d="M 228.5 106.5 L 228.5 106.5 A 2 2 0 0 1 230.5 108.5 L 230.5 166.5 A 0 0 0 0 1 230.5 166.5 L 226.5 166.5 A 0 0 0 0 1 226.5 166.5 L 226.5 108.5 A 2 2 0 0 1 228.5 106.5 Z" stroke="#ffffff" stroke-width="1" opacity="1" filter="none" class="highcharts-point highcharts-color-0" tabindex="-1" role="img" aria-label="TELANGANA, 2,167,258.1800000016. Sales_Amount." style="outline: none;"></path><path fill="#0078D4" d="M 221.5 111.5 L 221.5 111.5 A 2 2 0 0 1 223.5 113.5 L 223.5 166.5 A 0 0 0 0 1 223.5 166.5 L 219.5 166.5 A 0 0 0 0 1 219.5 166.5 L 219.5 113.5 A 2 2 0 0 1 221.5 111.5 Z" stroke="#ffffff" stroke-width="1" opacity="1" filter="none" class="highcharts-point highcharts-color-0" tabindex="-1" role="img" aria-label="TAMIL NADU, 1,992,970.0799999998. Sales_Amount." style="outline: none;"></path><path fill="#0078D4" d="M 214.5 123.5 L 214.5 123.5 A 2 2 0 0 1 216.5 125.5 L 216.5 166.5 A 0 0 0 0 1 216.5 166.5 L 212.5 166.5 A 0 0 0 0 1 212.5 166.5 L 212.5 125.5 A 2 2 0 0 1 214.5 123.5 Z" stroke="#ffffff" stroke-width="1" opacity="1" filter="none" class="highcharts-point highcharts-color-0" tabindex="-1" role="img" aria-label="DELHI, 1,561,202.17. Sales_Amount." style="outline: none;"></path><path fill="#0078D4" d="M 207.5 128.5 L 207.5 128.5 A 2 2 0 0 1 209.5 130.5 L 209.5 166.5 A 0 0 0 0 1 209.5 166.5 L 205.5 166.5 A 0 0 0 0 1 205.5 166.5 L 205.5 130.5 A 2 2 0 0 1 207.5 128.5 Z" stroke="#ffffff" stroke-width="1" opacity="1" filter="none" class="highcharts-point highcharts-color-0" tabindex="-1" role="img" aria-label="WEST BENGAL, 1,368,732.5100000005. Sales_Amount." style="outline: none;"></path><path fill="#0078D4" d="M 200.5 130.5 L 200.5 130.5 A 2 2 0 0 1 202.5 132.5 L 202.5 166.5 A 0 0 0 0 1 202.5 166.5 L 198.5 166.5 A 0 0 0 0 1 198.5 166.5 L 198.5 132.5 A 2 2 0 0 1 200.5 130.5 Z" stroke="#ffffff" stroke-width="1" opacity="1" filter="none" class="highcharts-point highcharts-color-0" tabindex="-1" role="img" aria-label="KERALA, 1,290,763.8099999996. Sales_Amount." style="outline: none;"></path><path fill="#0078D4" d="M 193.5 137.5 L 193.5 137.5 A 2 2 0 0 1 195.5 139.5 L 195.5 166.5 A 0 0 0 0 1 195.5 166.5 L 191.5 166.5 A 0 0 0 0 1 191.5 166.5 L 191.5 139.5 A 2 2 0 0 1 193.5 137.5 Z" stroke="#ffffff" stroke-width="1" opacity="1" filter="none" class="highcharts-point highcharts-color-0" tabindex="-1" role="img" aria-label="ANDHRA PRADESH, 1,039,157.9299999996. Sales_Amount." style="outline: none;"></path><path fill="#0078D4" d="M 187.5 139.5 L 187.5 139.5 A 2 2 0 0 1 189.5 141.5 L 189.5 166.5 A 0 0 0 0 1 189.5 166.5 L 185.5 166.5 A 0 0 0 0 1 185.5 166.5 L 185.5 141.5 A 2 2 0 0 1 187.5 139.5 Z" stroke="#ffffff" stroke-width="1" opacity="1" filter="none" class="highcharts-point highcharts-color-0" tabindex="-1" role="img" aria-label="HARYANA, 972,877.8499999996. Sales_Amount." style="outline: none;"></path><path fill="#0078D4" d="M 180.5 140.5 L 180.5 140.5 A 2 2 0 0 1 182.5 142.5 L 182.5 166.5 A 0 0 0 0 1 182.5 166.5 L 178.5 166.5 A 0 0 0 0 1 178.5 166.5 L 178.5 142.5 A 2 2 0 0 1 180.5 140.5 Z" stroke="#ffffff" stroke-width="1" opacity="1" filter="none" class="highcharts-point highcharts-color-0" tabindex="-1" role="img" aria-label="GUJARAT, 936,345.82. Sales_Amount." style="outline: none;"></path><path fill="#0078D4" d="M 173.5 149.5 L 173.5 149.5 A 2 2 0 0 1 175.5 151.5 L 175.5 166.5 A 0 0 0 0 1 175.5 166.5 L 171.5 166.5 A 0 0 0 0 1 171.5 166.5 L 171.5 151.5 A 2 2 0 0 1 173.5 149.5 Z" stroke="#ffffff" stroke-width="1" opacity="1" filter="none" class="highcharts-point highcharts-color-0" tabindex="-1" role="img" aria-label="RAJASTHAN, 615,125.31. Sales_Amount." style="outline: none;"></path><path fill="#0078D4" d="M 166.5 151.5 L 166.5 151.5 A 2 2 0 0 1 168.5 153.5 L 168.5 166.5 A 0 0 0 0 1 168.5 166.5 L 164.5 166.5 A 0 0 0 0 1 164.5 166.5 L 164.5 153.5 A 2 2 0 0 1 166.5 151.5 Z" stroke="#ffffff" stroke-width="1" opacity="1" filter="none" class="highcharts-point highcharts-color-0" tabindex="-1" role="img" aria-label="MADHYA PRADESH, 544,344.67. Sales_Amount." style="outline: none;"></path><path fill="#0078D4" d="M 159.5 151.5 L 159.5 151.5 A 2 2 0 0 1 161.5 153.5 L 161.5 166.5 A 0 0 0 0 1 161.5 166.5 L 157.5 166.5 A 0 0 0 0 1 157.5 166.5 L 157.5 153.5 A 2 2 0 0 1 159.5 151.5 Z" stroke="#ffffff" stroke-width="1" opacity="1" filter="none" class="highcharts-point highcharts-color-0" tabindex="-1" role="img" aria-label="BIHAR, 532,867.1599999999. Sales_Amount." style="outline: none;"></path><path fill="#0078D4" d="M 153.5 153.5 L 153.5 153.5 A 2 2 0 0 1 155.5 155.5 L 155.5 166.5 A 0 0 0 0 1 155.5 166.5 L 151.5 166.5 A 0 0 0 0 1 151.5 166.5 L 151.5 155.5 A 2 2 0 0 1 153.5 153.5 Z" stroke="#ffffff" stroke-width="1" opacity="1" filter="none" class="highcharts-point highcharts-color-0" tabindex="-1" role="img" aria-label="ODISHA, 484,764.1299999999. Sales_Amount." style="outline: none;"></path><path fill="#0078D4" d="M 146.5 154.5 L 146.5 154.5 A 2 2 0 0 1 148.5 156.5 L 148.5 166.5 A 0 0 0 0 1 148.5 166.5 L 144.5 166.5 A 0 0 0 0 1 144.5 166.5 L 144.5 156.5 A 2 2 0 0 1 146.5 154.5 Z" stroke="#ffffff" stroke-width="1" opacity="1" filter="none" class="highcharts-point highcharts-color-0" tabindex="-1" role="img" aria-label="PUNJAB, 443,403.14999999997. Sales_Amount." style="outline: none;"></path><path fill="#0078D4" d="M 139.5 155.5 L 139.5 155.5 A 2 2 0 0 1 141.5 157.5 L 141.5 166.5 A 0 0 0 0 1 141.5 166.5 L 137.5 166.5 A 0 0 0 0 1 137.5 166.5 L 137.5 157.5 A 2 2 0 0 1 139.5 155.5 Z" stroke="#ffffff" stroke-width="1" opacity="1" filter="none" class="highcharts-point highcharts-color-0" tabindex="-1" role="img" aria-label="ASSAM, 402,181.88000000006. Sales_Amount." style="outline: none;"></path><path fill="#0078D4" d="M 132.5 155.5 L 132.5 155.5 A 2 2 0 0 1 134.5 157.5 L 134.5 166.5 A 0 0 0 0 1 134.5 166.5 L 130.5 166.5 A 0 0 0 0 1 130.5 166.5 L 130.5 157.5 A 2 2 0 0 1 132.5 155.5 Z" stroke="#ffffff" stroke-width="1" opacity="1" filter="none" class="highcharts-point highcharts-color-0" tabindex="-1" role="img" aria-label="UTTARAKHAND, 380,586.16000000003. Sales_Amount." style="outline: none;"></path><path fill="#0078D4" d="M 125.5 156.5 L 125.5 156.5 A 2 2 0 0 1 127.5 158.5 L 127.5 166.5 A 0 0 0 0 1 127.5 166.5 L 123.5 166.5 A 0 0 0 0 1 123.5 166.5 L 123.5 158.5 A 2 2 0 0 1 125.5 156.5 Z" stroke="#ffffff" stroke-width="1" opacity="1" filter="none" class="highcharts-point highcharts-color-0" tabindex="-1" role="img" aria-label="JHARKHAND, 367,720.04. Sales_Amount." style="outline: none;"></path><path fill="#0078D4" d="M 119.5 159.5 L 119.5 159.5 A 2 2 0 0 1 121.5 161.5 L 121.5 166.5 A 0 0 0 0 1 121.5 166.5 L 117.5 166.5 A 0 0 0 0 1 117.5 166.5 L 117.5 161.5 A 2 2 0 0 1 119.5 159.5 Z" stroke="#ffffff" stroke-width="1" opacity="1" filter="none" class="highcharts-point highcharts-color-0" tabindex="-1" role="img" aria-label="GOA, 254,009.72000000003. Sales_Amount." style="outline: none;"></path><path fill="#0078D4" d="M 112.5 160.5 L 112.5 160.5 A 2 2 0 0 1 114.5 162.5 L 114.5 166.5 A 0 0 0 0 1 114.5 166.5 L 110.5 166.5 A 0 0 0 0 1 110.5 166.5 L 110.5 162.5 A 2 2 0 0 1 112.5 160.5 Z" stroke="#ffffff" stroke-width="1" opacity="1" filter="none" class="highcharts-point highcharts-color-0" tabindex="-1" role="img" aria-label="CHHATTISGARH, 211,903.50999999998. Sales_Amount." style="outline: none;"></path><path fill="#0078D4" d="M 105.5 161.5 L 105.5 161.5 A 2 2 0 0 1 107.5 163.5 L 107.5 166.5 A 0 0 0 0 1 107.5 166.5 L 103.5 166.5 A 0 0 0 0 1 103.5 166.5 L 103.5 163.5 A 2 2 0 0 1 105.5 161.5 Z" stroke="#ffffff" stroke-width="1" opacity="1" filter="none" class="highcharts-point highcharts-color-0" tabindex="-1" role="img" aria-label="HIMACHAL PRADESH, 173,777.91999999995. Sales_Amount." style="outline: none;"></path><path fill="#0078D4" d="M 98.5 161.5 L 98.5 161.5 A 2 2 0 0 1 100.5 163.5 L 100.5 166.5 A 0 0 0 0 1 100.5 166.5 L 96.5 166.5 A 0 0 0 0 1 96.5 166.5 L 96.5 163.5 A 2 2 0 0 1 98.5 161.5 Z" stroke="#ffffff" stroke-width="1" opacity="1" filter="none" class="highcharts-point highcharts-color-0" tabindex="-1" role="img" aria-label="JAMMU &amp; KASHMIR, 169,050.45999999993. Sales_Amount." style="outline: none;"></path><path fill="#0078D4" d="M 91.5 164.5 L 91.5 164.5 A 2 2 0 0 1 93.5 166.5 L 93.5 166.5 A 0 0 0 0 1 93.5 166.5 L 89.5 166.5 A 0 0 0 0 1 89.5 166.5 L 89.5 166.5 A 2 2 0 0 1 91.5 164.5 Z" stroke="#ffffff" stroke-width="1" opacity="1" filter="none" class="highcharts-point highcharts-color-0" tabindex="-1" role="img" aria-label="MANIPUR, 83,801.66. Sales_Amount." style="outline: none;"></path><path fill="#0078D4" d="M 85.5 164.5 L 85.5 164.5 A 2 2 0 0 1 87.5 166.5 L 87.5 166.5 A 0 0 0 0 1 87.5 166.5 L 83.5 166.5 A 0 0 0 0 1 83.5 166.5 L 83.5 166.5 A 2 2 0 0 1 85.5 164.5 Z" stroke="#ffffff" stroke-width="1" opacity="1" filter="none" class="highcharts-point highcharts-color-0" tabindex="-1" role="img" aria-label="CHANDIGARH, 70,612.33. Sales_Amount." style="outline: none;"></path><path fill="#0078D4" d="M 78.5 164.5 L 78.5 164.5 A 2 2 0 0 1 80.5 166.5 L 80.5 166.5 A 0 0 0 0 1 80.5 166.5 L 76.5 166.5 A 0 0 0 0 1 76.5 166.5 L 76.5 166.5 A 2 2 0 0 1 78.5 164.5 Z" stroke="#ffffff" stroke-width="1" opacity="1" filter="none" class="highcharts-point highcharts-color-0" tabindex="-1" role="img" aria-label="PUDUCHERRY, 56,843.66. Sales_Amount." style="outline: none;"></path><path fill="#0078D4" d="M 71.5 165.5 L 71.5 165.5 A 2 2 0 0 1 73.23205080756888 166.5 L 73.23205080756888 166.5 A 0 0 0 0 1 73.23205080756888 166.5 L 73.23205080756888 166.5 A 0 0 0 0 1 69.76794919243112 166.5 L 69.76794919243112 166.5 A 2 2 0 0 1 71.5 165.5 Z" stroke="#ffffff" stroke-width="1" opacity="1" filter="none" class="highcharts-point highcharts-color-0" tabindex="-1" role="img" aria-label="ANDAMAN &amp; NICOBAR , 51,805.729999999996. Sales_Amount." style="outline: none;"></path><path fill="#0078D4" d="M 64.5 165.5 L 64.5 165.5 A 2 2 0 0 1 66.23205080756888 166.5 L 66.23205080756888 166.5 A 0 0 0 0 1 66.23205080756888 166.5 L 66.23205080756888 166.5 A 0 0 0 0 1 62.767949192431125 166.5 L 62.767949192431125 166.5 A 2 2 0 0 1 64.5 165.5 Z" stroke="#ffffff" stroke-width="1" opacity="1" filter="none" class="highcharts-point highcharts-color-0" tabindex="-1" role="img" aria-label="SIKKIM, 45,377.53. Sales_Amount." style="outline: none;"></path><path fill="#0078D4" d="M 57.5 165.5 L 57.5 165.5 A 2 2 0 0 1 59.232050807568875 166.5 L 59.232050807568875 166.5 A 0 0 0 0 1 59.232050807568875 166.5 L 59.232050807568875 166.5 A 0 0 0 0 1 55.767949192431125 166.5 L 55.767949192431125 166.5 A 2 2 0 0 1 57.5 165.5 Z" stroke="#ffffff" stroke-width="1" opacity="1" filter="none" class="highcharts-point highcharts-color-0" tabindex="-1" role="img" aria-label="MEGHALAYA, 41,195.619999999995. Sales_Amount." style="outline: none;"></path><path fill="#0078D4" d="M 50.5 165.5 L 50.5 165.5 A 2 2 0 0 1 52.232050807568875 166.5 L 52.232050807568875 166.5 A 0 0 0 0 1 52.232050807568875 166.5 L 52.232050807568875 166.5 A 0 0 0 0 1 48.767949192431125 166.5 L 48.767949192431125 166.5 A 2 2 0 0 1 50.5 165.5 Z" stroke="#ffffff" stroke-width="1" opacity="1" filter="none" class="highcharts-point highcharts-color-0" tabindex="-1" role="img" aria-label="TRIPURA, 36,006. Sales_Amount." style="outline: none;"></path><path fill="#0078D4" d="M 44.5 165.5 L 44.5 165.5 A 2 2 0 0 1 46.232050807568875 166.5 L 46.232050807568875 166.5 A 0 0 0 0 1 46.232050807568875 166.5 L 46.232050807568875 166.5 A 0 0 0 0 1 42.767949192431125 166.5 L 42.767949192431125 166.5 A 2 2 0 0 1 44.5 165.5 Z" stroke="#ffffff" stroke-width="1" opacity="1" filter="none" class="highcharts-point highcharts-color-0" tabindex="-1" role="img" aria-label="ARUNACHAL PRADESH, 29,988.38. Sales_Amount." style="outline: none;"></path><path fill="#0078D4" d="M 37.5 165.5 L 37.5 165.5 A 2 2 0 0 1 39.232050807568875 166.5 L 39.232050807568875 166.5 A 0 0 0 0 1 39.232050807568875 166.5 L 39.232050807568875 166.5 A 0 0 0 0 1 35.767949192431125 166.5 L 35.767949192431125 166.5 A 2 2 0 0 1 37.5 165.5 Z" stroke="#ffffff" stroke-width="1" opacity="1" filter="none" class="highcharts-point highcharts-color-0" tabindex="-1" role="img" aria-label="NAGALAND, 29,929.15. Sales_Amount." style="outline: none;"></path><path fill="#0078D4" d="M 30.5 165.5 L 30.5 165.5 A 2 2 0 0 1 32.232050807568875 166.5 L 32.232050807568875 166.5 A 0 0 0 0 1 32.232050807568875 166.5 L 32.232050807568875 166.5 A 0 0 0 0 1 28.76794919243112 166.5 L 28.76794919243112 166.5 A 2 2 0 0 1 30.5 165.5 Z" stroke="#ffffff" stroke-width="1" opacity="1" filter="none" class="highcharts-point highcharts-color-0" tabindex="-1" role="img" aria-label="NEW DELHI, 23,398. Sales_Amount." style="outline: none;"></path><path fill="#0078D4" d="M 23.5 166.5 L 23.5 166.5 A 2 2 0 0 1 23.5 166.5 L 23.5 166.5 A 0 0 0 0 1 23.5 166.5 L 23.5 166.5 A 0 0 0 0 1 23.5 166.5 L 23.5 166.5 A 2 2 0 0 1 23.5 166.5 Z" stroke="#ffffff" stroke-width="1" opacity="1" filter="none" class="highcharts-point highcharts-color-0" tabindex="-1" role="img" aria-label="DADRA AND NAGAR, 15,623.9. Sales_Amount." style="outline: none;"></path><path fill="#0078D4" d="M 16.5 166.5 L 16.5 166.5 A 2 2 0 0 1 16.5 166.5 L 16.5 166.5 A 0 0 0 0 1 16.5 166.5 L 16.5 166.5 A 0 0 0 0 1 16.5 166.5 L 16.5 166.5 A 2 2 0 0 1 16.5 166.5 Z" stroke="#ffffff" stroke-width="1" opacity="1" filter="none" class="highcharts-point highcharts-color-0" tabindex="-1" role="img" aria-label="LADAKH, 13,933. Sales_Amount." style="outline: none;"></path><path fill="#0078D4" d="M 10.5 166.5 L 10.5 166.5 A 2 2 0 0 1 10.5 166.5 L 10.5 166.5 A 0 0 0 0 1 10.5 166.5 L 10.5 166.5 A 0 0 0 0 1 10.5 166.5 L 10.5 166.5 A 2 2 0 0 1 10.5 166.5 Z" stroke="#ffffff" stroke-width="1" opacity="1" filter="none" class="highcharts-point highcharts-color-0" tabindex="-1" role="img" aria-label="MIZORAM, 12,114. Sales_Amount." style="outline: none;"></path><path fill="#0078D4" d="M 3.5 166.5 L 3.5 166.5 A 2 2 0 0 1 3.5 166.5 L 3.5 166.5 A 0 0 0 0 1 3.5 166.5 L 3.5 166.5 A 0 0 0 0 1 3.5 166.5 L 3.5 166.5 A 2 2 0 0 1 3.5 166.5 Z" stroke="#ffffff" stroke-width="1" opacity="1" filter="none" class="highcharts-point highcharts-color-0" tabindex="-1" role="img" aria-label="LAKSHADWEEP, 825. Sales_Amount." style="outline: none;"></path></g><g class="highcharts-markers highcharts-series-0 highcharts-bar-series highcharts-color-0" data-z-index="0.1" opacity="1" transform="translate(125,52) scale(1 1)" clip-path="none" aria-hidden="true"></g><g class="highcharts-series highcharts-series-1 highcharts-bar-series highcharts-color-1" visibility="hidden" data-z-index="0.1" opacity="1" transform="translate(125,52) rotate(90 -43 209) scale(-1 1)" clip-path="url(#highcharts-e2rh8ss-2298-)" aria-hidden="true"></g><g class="highcharts-markers highcharts-series-1 highcharts-bar-series highcharts-color-1" visibility="hidden" data-z-index="0.1" opacity="1" transform="translate(125,52) scale(1 1)" clip-path="none" aria-hidden="true"></g></g><text x="151" text-anchor="middle" class="highcharts-title" data-z-index="4" style="font-size: 1.2em; color: rgb(51, 51, 51); font-weight: bold; fill: rgb(51, 51, 51);" y="25" aria-hidden="true"></text><text x="151" text-anchor="middle" class="highcharts-subtitle" data-z-index="4" style="color: rgb(102, 102, 102); font-size: 0.8em; fill: rgb(102, 102, 102);" y="24" aria-hidden="true"></text><text x="10" text-anchor="start" class="highcharts-caption" data-z-index="4" style="color: rgb(102, 102, 102); font-size: 0.8em; fill: rgb(102, 102, 102);" y="346" aria-hidden="true"></text><g class="highcharts-legend highcharts-no-tooltip" data-z-index="7" transform="translate(60,10)" aria-hidden="true"><rect fill="none" class="highcharts-legend-box" rx="0" ry="0" stroke="#999999" stroke-width="0" filter="none" x="0" y="0" width="231" height="30"></rect><g data-z-index="1"><g><g class="highcharts-legend-item highcharts-bar-series highcharts-color-0 highcharts-series-0" data-z-index="1" transform="translate(8,3)"><text x="21" text-anchor="start" data-z-index="2" style="color: rgb(51, 51, 51); cursor: pointer; font-size: 0.8em; text-decoration: none; fill: rgb(51, 51, 51);" y="17">Sales_Amount</text><rect x="2" y="6" rx="6" ry="6" width="12" height="12" fill="#0078D4" class="highcharts-point" data-z-index="3"></rect></g><g class="highcharts-legend-item highcharts-bar-series highcharts-color-1 highcharts-series-1 highcharts-legend-item-hidden" data-z-index="1" transform="translate(132.6936798095703,3)"><text x="21" y="17" text-anchor="start" data-z-index="2" style="color: rgb(102, 102, 102); cursor: pointer; font-size: 0.8em; text-decoration: line-through; fill: rgb(102, 102, 102);">Sales_Rank</text><rect x="2" y="6" rx="6" ry="6" width="12" height="12" fill="#666666" class="highcharts-point" data-z-index="3"></rect></g></g></g></g><g class="highcharts-axis-labels highcharts-xaxis-labels" data-z-index="7" aria-hidden="true"><text x="110" text-anchor="end" transform="translate(0,0)" style="color: rgb(51, 51, 51); cursor: default; font-size: 0.8em; fill: rgb(51, 51, 51);" y="60" opacity="1">MAHARASHTRA</text><text x="110" text-anchor="end" transform="translate(0,0)" style="color: rgb(51, 51, 51); cursor: default; font-size: 0.8em; fill: rgb(51, 51, 51);" y="80" opacity="1">TELANGANA</text><text x="110" text-anchor="end" transform="translate(0,0)" style="color: rgb(51, 51, 51); cursor: default; font-size: 0.8em; fill: rgb(51, 51, 51);" y="101" opacity="1"><title>WEST BENGAL</title>WEST BENG…</text><text x="110" text-anchor="end" transform="translate(0,0)" style="color: rgb(51, 51, 51); cursor: default; font-size: 0.8em; fill: rgb(51, 51, 51);" y="121" opacity="1">HARYANA</text><text x="110" text-anchor="end" transform="translate(0,0)" style="color: rgb(51, 51, 51); cursor: default; font-size: 0.8em; fill: rgb(51, 51, 51);" y="142" opacity="1"><title>MADHYA PRADESH</title>MADHYA PR…</text><text x="110" text-anchor="end" transform="translate(0,0)" style="color: rgb(51, 51, 51); cursor: default; font-size: 0.8em; fill: rgb(51, 51, 51);" y="162" opacity="1">PUNJAB</text><text x="110" text-anchor="end" transform="translate(0,0)" style="color: rgb(51, 51, 51); cursor: default; font-size: 0.8em; fill: rgb(51, 51, 51);" y="183" opacity="1">JHARKHAND</text><text x="110" text-anchor="end" transform="translate(0,0)" style="color: rgb(51, 51, 51); cursor: default; font-size: 0.8em; fill: rgb(51, 51, 51);" y="203" opacity="1"><title>HIMACHAL PRADESH</title>HIMACHAL …</text><text x="110" text-anchor="end" transform="translate(0,0)" style="color: rgb(51, 51, 51); cursor: default; font-size: 0.8em; fill: rgb(51, 51, 51);" y="223" opacity="1">CHANDIGARH</text><text x="110" text-anchor="end" transform="translate(0,0)" style="color: rgb(51, 51, 51); cursor: default; font-size: 0.8em; fill: rgb(51, 51, 51);" y="244" opacity="1">SIKKIM</text><text x="110" text-anchor="end" transform="translate(0,0)" style="color: rgb(51, 51, 51); cursor: default; font-size: 0.8em; fill: rgb(51, 51, 51);" y="264" opacity="1"><title>ARUNACHAL PRADESH</title>ARUNACHA…</text><text x="110" text-anchor="end" transform="translate(0,0)" style="color: rgb(51, 51, 51); cursor: default; font-size: 0.8em; fill: rgb(51, 51, 51);" y="285" opacity="1"><title>DADRA AND NAGAR</title>DADRA AND…</text><text x="110" text-anchor="end" transform="translate(0,0)" style="color: rgb(51, 51, 51); cursor: default; font-size: 0.8em; fill: rgb(51, 51, 51);" y="305" opacity="1">LAKSHADWEEP</text></g><g class="highcharts-axis-labels highcharts-yaxis-labels" data-z-index="7" aria-hidden="true"><text x="125" text-anchor="middle" transform="translate(0,0)" style="color: rgb(51, 51, 51); cursor: default; font-size: 0.8em; fill: rgb(51, 51, 51);" y="331" opacity="1">0</text><text x="180.33333333333" text-anchor="middle" transform="translate(0,0)" style="color: rgb(51, 51, 51); cursor: default; font-size: 0.8em; fill: rgb(51, 51, 51);" y="331" opacity="1">2M</text><text x="235.66666666667" text-anchor="middle" transform="translate(0,0)" style="color: rgb(51, 51, 51); cursor: default; font-size: 0.8em; fill: rgb(51, 51, 51);" y="331" opacity="1">4M</text><text x="281.9406280517578" text-anchor="middle" transform="translate(0,0)" y="331" opacity="1" style="color: rgb(51, 51, 51); cursor: default; font-size: 0.8em; fill: rgb(51, 51, 51);">6M</text></g></svg>